<?xml version="1.0" encoding="UTF-8" standalone="no"?>
<!DOCTYPE svg PUBLIC "-//W3C//DTD SVG 1.1//EN"
 "http://www.w3.org/Graphics/SVG/1.1/DTD/svg11.dtd">
<!-- Generated by graphviz version 2.49.1 (20210923.0004)
 -->
<!-- Title: G Pages: 1 -->
<svg width="476pt" height="305pt"
 viewBox="0.00 0.00 476.39 305.00" xmlns="http://www.w3.org/2000/svg" xmlns:xlink="http://www.w3.org/1999/xlink">
<g id="graph0" class="graph" transform="scale(1 1) rotate(0) translate(4 301)">
<title>G</title>
<polygon fill="white" stroke="transparent" points="-4,4 -4,-301 472.39,-301 472.39,4 -4,4"/>
<!-- backend -->
<g id="node1" class="node">
<title>backend</title>
<ellipse fill="none" stroke="black" cx="281.69" cy="-192" rx="41.69" ry="18"/>
<text text-anchor="middle" x="281.69" y="-188.3" font-family="Times New Roman,serif" font-size="14.00">backend</text>
</g>
<!-- mysql1 -->
<g id="node2" class="node">
<title>mysql1</title>
<ellipse fill="none" stroke="black" cx="172.69" cy="-105" rx="37.09" ry="18"/>
<text text-anchor="middle" x="172.69" y="-101.3" font-family="Times New Roman,serif" font-size="14.00">mysql1</text>
</g>
<!-- backend&#45;&gt;mysql1 -->
<g id="edge1" class="edge">
<title>backend&#45;&gt;mysql1</title>
<path fill="none" stroke="black" d="M251.84,-179.25C239.03,-173.38 224.37,-165.49 212.69,-156 203.9,-148.85 195.76,-139.46 189.15,-130.75"/>
<polygon fill="black" stroke="black" points="191.79,-128.42 183.09,-122.37 186.12,-132.52 191.79,-128.42"/>
<text text-anchor="middle" x="245.19" y="-144.8" font-family="Times New Roman,serif" font-size="14.00">dependsOn</text>
</g>
<!-- solr1 -->
<g id="node3" class="node">
<title>solr1</title>
<ellipse fill="none" stroke="black" cx="281.69" cy="-105" rx="28.7" ry="18"/>
<text text-anchor="middle" x="281.69" y="-101.3" font-family="Times New Roman,serif" font-size="14.00">solr1</text>
</g>
<!-- backend&#45;&gt;solr1 -->
<g id="edge2" class="edge">
<title>backend&#45;&gt;solr1</title>
<path fill="none" stroke="black" d="M281.69,-173.8C281.69,-162.16 281.69,-146.55 281.69,-133.24"/>
<polygon fill="black" stroke="black" points="285.19,-133.18 281.69,-123.18 278.19,-133.18 285.19,-133.18"/>
<text text-anchor="middle" x="314.19" y="-144.8" font-family="Times New Roman,serif" font-size="14.00">dependsOn</text>
</g>
<!-- 127.0.0.1:8888 -->
<g id="node8" class="node">
<title>127.0.0.1:8888</title>
<ellipse fill="none" stroke="black" cx="391.69" cy="-105" rx="63.89" ry="18"/>
<text text-anchor="middle" x="391.69" y="-101.3" font-family="Times New Roman,serif" font-size="14.00">127.0.0.1:8888</text>
</g>
<!-- backend&#45;&gt;127.0.0.1:8888 -->
<g id="edge7" class="edge">
<title>backend&#45;&gt;127.0.0.1:8888</title>
<path fill="none" stroke="black" d="M311.5,-179.18C324.29,-173.3 338.97,-165.42 350.69,-156 359.58,-148.86 367.87,-139.52 374.64,-130.84"/>
<polygon fill="black" stroke="black" points="377.44,-132.93 380.63,-122.83 371.84,-128.74 377.44,-132.93"/>
<text text-anchor="middle" x="378.69" y="-144.8" font-family="Times New Roman,serif" font-size="14.00">addr</text>
</g>
<!-- 127.0.0.1:3306 -->
<g id="node4" class="node">
<title>127.0.0.1:3306</title>
<ellipse fill="none" stroke="black" cx="63.69" cy="-18" rx="63.89" ry="18"/>
<text text-anchor="middle" x="63.69" y="-14.3" font-family="Times New Roman,serif" font-size="14.00">127.0.0.1:3306</text>
</g>
<!-- mysql1&#45;&gt;127.0.0.1:3306 -->
<g id="edge3" class="edge">
<title>mysql1&#45;&gt;127.0.0.1:3306</title>
<path fill="none" stroke="black" d="M153.71,-89.19C136.74,-75.96 111.63,-56.38 92.24,-41.26"/>
<polygon fill="black" stroke="black" points="94.35,-38.47 84.32,-35.08 90.05,-43.99 94.35,-38.47"/>
<text text-anchor="middle" x="138.69" y="-57.8" font-family="Times New Roman,serif" font-size="14.00">addr</text>
</g>
<!-- 8.0 -->
<g id="node5" class="node">
<title>8.0</title>
<ellipse fill="none" stroke="black" cx="172.69" cy="-18" rx="27" ry="18"/>
<text text-anchor="middle" x="172.69" y="-14.3" font-family="Times New Roman,serif" font-size="14.00">8.0</text>
</g>
<!-- mysql1&#45;&gt;8.0 -->
<g id="edge4" class="edge">
<title>mysql1&#45;&gt;8.0</title>
<path fill="none" stroke="black" d="M172.69,-86.8C172.69,-75.16 172.69,-59.55 172.69,-46.24"/>
<polygon fill="black" stroke="black" points="176.19,-46.18 172.69,-36.18 169.19,-46.18 176.19,-46.18"/>
<text text-anchor="middle" x="193.19" y="-57.8" font-family="Times New Roman,serif" font-size="14.00">version</text>
</g>
<!-- 127.0.0.1:8983 -->
<g id="node6" class="node">
<title>127.0.0.1:8983</title>
<ellipse fill="none" stroke="black" cx="281.69" cy="-18" rx="63.89" ry="18"/>
<text text-anchor="middle" x="281.69" y="-14.3" font-family="Times New Roman,serif" font-size="14.00">127.0.0.1:8983</text>
</g>
<!-- solr1&#45;&gt;127.0.0.1:8983 -->
<g id="edge5" class="edge">
<title>solr1&#45;&gt;127.0.0.1:8983</title>
<path fill="none" stroke="black" d="M281.69,-86.8C281.69,-75.16 281.69,-59.55 281.69,-46.24"/>
<polygon fill="black" stroke="black" points="285.19,-46.18 281.69,-36.18 278.19,-46.18 285.19,-46.18"/>
<text text-anchor="middle" x="294.69" y="-57.8" font-family="Times New Roman,serif" font-size="14.00">addr</text>
</g>
<!-- 8.10.0 -->
<g id="node7" class="node">
<title>8.10.0</title>
<ellipse fill="none" stroke="black" cx="396.69" cy="-18" rx="33.29" ry="18"/>
<text text-anchor="middle" x="396.69" y="-14.3" font-family="Times New Roman,serif" font-size="14.00">8.10.0</text>
</g>
<!-- solr1&#45;&gt;8.10.0 -->
<g id="edge6" class="edge">
<title>solr1&#45;&gt;8.10.0</title>
<path fill="none" stroke="black" d="M299.66,-90.72C318.4,-76.87 348,-54.99 369.58,-39.04"/>
<polygon fill="black" stroke="black" points="371.74,-41.79 377.7,-33.04 367.58,-36.17 371.74,-41.79"/>
<text text-anchor="middle" x="366.19" y="-57.8" font-family="Times New Roman,serif" font-size="14.00">version</text>
</g>
<!-- frontend -->
<g id="node9" class="node">
<title>frontend</title>
<ellipse fill="none" stroke="black" cx="343.69" cy="-279" rx="41.69" ry="18"/>
<text text-anchor="middle" x="343.69" y="-275.3" font-family="Times New Roman,serif" font-size="14.00">frontend</text>
</g>
<!-- frontend&#45;&gt;backend -->
<g id="edge8" class="edge">
<title>frontend&#45;&gt;backend</title>
<path fill="none" stroke="black" d="M321.53,-263.54C314.12,-257.85 306.33,-250.8 300.69,-243 295.73,-236.12 291.88,-227.78 289,-219.89"/>
<polygon fill="black" stroke="black" points="292.29,-218.7 285.84,-210.3 285.64,-220.89 292.29,-218.7"/>
<text text-anchor="middle" x="333.19" y="-231.8" font-family="Times New Roman,serif" font-size="14.00">dependsOn</text>
</g>
<!-- 127.0.0.1:9999 -->
<g id="node10" class="node">
<title>127.0.0.1:9999</title>
<ellipse fill="none" stroke="black" cx="404.69" cy="-192" rx="63.89" ry="18"/>
<text text-anchor="middle" x="404.69" y="-188.3" font-family="Times New Roman,serif" font-size="14.00">127.0.0.1:9999</text>
</g>
<!-- frontend&#45;&gt;127.0.0.1:9999 -->
<g id="edge9" class="edge">
<title>frontend&#45;&gt;127.0.0.1:9999</title>
<path fill="none" stroke="black" d="M355.46,-261.61C364.29,-249.31 376.54,-232.23 386.61,-218.2"/>
<polygon fill="black" stroke="black" points="389.56,-220.09 392.55,-209.92 383.88,-216 389.56,-220.09"/>
<text text-anchor="middle" x="390.69" y="-231.8" font-family="Times New Roman,serif" font-size="14.00">addr</text>
</g>
</g>
</svg>
